<?xml version="1.0" encoding="UTF-8" standalone="no"?>
<!-- Created with Inkscape (http://www.inkscape.org/) -->

<svg
   xmlns:dc="http://purl.org/dc/elements/1.1/"
   xmlns:cc="http://creativecommons.org/ns#"
   xmlns:rdf="http://www.w3.org/1999/02/22-rdf-syntax-ns#"
   xmlns:svg="http://www.w3.org/2000/svg"
   xmlns="http://www.w3.org/2000/svg"
   xmlns:xlink="http://www.w3.org/1999/xlink"
   xmlns:sodipodi="http://sodipodi.sourceforge.net/DTD/sodipodi-0.dtd"
   xmlns:inkscape="http://www.inkscape.org/namespaces/inkscape"
   version="1.2"
   width="582.54633"
   height="127.84714"
   id="svg2"
   inkscape:version="0.48.4 r9939"
   sodipodi:docname="markku2.svg"
   inkscape:export-filename="/home/joakim/Pictures/markku.png"
   inkscape:export-xdpi="90"
   inkscape:export-ydpi="90">
  <sodipodi:namedview
     pagecolor="#ffffff"
     bordercolor="#666666"
     borderopacity="1"
     objecttolerance="10"
     gridtolerance="10"
     guidetolerance="10"
     inkscape:pageopacity="0"
     inkscape:pageshadow="2"
     inkscape:window-width="1280"
     inkscape:window-height="734"
     id="namedview3124"
     showgrid="false"
     inkscape:zoom="1.9328936"
     inkscape:cx="288.11003"
     inkscape:cy="16.249146"
     inkscape:window-x="0"
     inkscape:window-y="27"
     inkscape:window-maximized="1"
     inkscape:current-layer="layer1"
     fit-margin-right="0"
     fit-margin-top="0"
     fit-margin-left="0"
     fit-margin-bottom="0" />
  <defs
     id="defs4">
    <linearGradient
       id="linearGradient6016">
      <stop
         id="stop6018"
         style="stop-color:#000000;stop-opacity:1"
         offset="0" />
      <stop
         id="stop6020"
         style="stop-color:#000000;stop-opacity:0"
         offset="1" />
    </linearGradient>
    <linearGradient
       id="linearGradient5808">
      <stop
         id="stop5810"
         style="stop-color:#000000;stop-opacity:1"
         offset="0" />
      <stop
         id="stop5812"
         style="stop-color:#000000;stop-opacity:0"
         offset="1" />
    </linearGradient>
    <linearGradient
       id="linearGradient5802">
      <stop
         id="stop5804"
         style="stop-color:#000000;stop-opacity:1"
         offset="0" />
    </linearGradient>
    <linearGradient
       x1="93.585999"
       y1="163.40691"
       x2="610.17194"
       y2="163.40691"
       id="linearGradient6022"
       xlink:href="#linearGradient6016"
       gradientUnits="userSpaceOnUse" />
    <linearGradient
       x1="93.585999"
       y1="226.20844"
       x2="540.64423"
       y2="226.20844"
       id="linearGradient6026"
       xlink:href="#linearGradient6016"
       gradientUnits="userSpaceOnUse" />
    <linearGradient
       x1="-0.044112351"
       y1="227.10764"
       x2="442.08936"
       y2="227.10764"
       id="linearGradient6028"
       xlink:href="#linearGradient6016"
       gradientUnits="userSpaceOnUse" />
  </defs>
  <metadata
     id="metadata7">
    <rdf:RDF>
      <cc:Work
         rdf:about="">
        <dc:format>image/svg+xml</dc:format>
        <dc:type
           rdf:resource="http://purl.org/dc/dcmitype/StillImage" />
        <dc:title></dc:title>
      </cc:Work>
    </rdf:RDF>
  </metadata>
  <g
     id="layer1"
     transform="translate(-60.448796,-102.7963)">
    <text
       x="122.43326"
       y="138.61276"
       id="text4034"
       xml:space="preserve"
       style="font-size:40px;font-style:normal;font-variant:normal;font-weight:bold;font-stretch:normal;line-height:113.99999857%;letter-spacing:0px;word-spacing:0px;fill:#333333;fill-opacity:1;stroke:none;font-family:Dingbats;-inkscape-font-specification:Dingbats Bold"
       sodipodi:linespacing="114%"><tspan
         sodipodi:role="line"
         id="tspan3023"
         style="line-height:113.99999857%;letter-spacing:-2.08999991px;fill:#333333"
         x="122.43326"
         y="138.61276">Rakennus ja saneeraus</tspan><tspan
         sodipodi:role="line"
         id="tspan3025"
         x="122.43326"
         y="184.21277"
         style="line-height:113.99999857%;fill:#333333"><tspan
   style="line-height:113.99999857%;letter-spacing:-2.08999991px;fill:#333333"
   id="tspan3027">Markku Hyttinen Tm</tspan>i</tspan></text>
    <g
       transform="matrix(-0.15899488,0.15736434,0.15899488,0.15736434,662.51562,112.70824)"
       id="g4229"
       style="stroke:none">
      <g
         transform="matrix(-0.00668772,-0.85966231,0.8596623,0.00668774,339.79406,188.36152)"
         id="g4187"
         style="fill:#333333;stroke:none">
        <g
           id="g4189"
           style="fill:#333333;stroke:none">
          <path
             d="m 336.52252,-13.793481 c 0,-8.67 -7.021,-15.701 -15.701,-15.701 l -318.4300008,0 c -3.25000002,0 -6.273,0.99 -8.7780004,2.689 -1.671,1.13 -3.108,2.567 -4.2379998,4.238 -1.695001,2.503 -2.685001,5.528 -2.685001,8.774 l 0,21.0870007 0,51.3110003 c 0,3.25 0.99,6.276 2.685001,8.778 1.1299998,1.671 2.5669998,3.108 4.2379998,4.24 2.5050004,1.693 5.52800038,2.683 8.7780004,2.683 l 318.4300008,0 c 8.681,0 15.701,-7.027 15.701,-15.701 l 0,-24.429 15.665,0 0,52.151 -187.552,34.241 c -5.6,1.02 -9.656,5.897 -9.656,11.59 l 0,50.445 -11.968,0 c -8.674,0 -15.701,7.025 -15.701,15.701 l 0,177.922 c 0,8.672 7.027,15.701 15.701,15.701 l 47.488,0 c 8.672,0 15.701,-7.029 15.701,-15.701 l 0,-177.922 c 0,-8.668 -7.029,-15.701 -15.701,-15.701 l -11.962,0 0,-40.619 187.548,-34.242 c 5.603,-1.024 9.657,-5.895 9.657,-11.587 l 0,-73.747 c 0,-6.502 -5.273,-11.776 -11.773,-11.776 l -27.431,0 0,-24.148001 0,-0.276 -0.016,0 z M 198.03912,9.5267587 c 4.14668,0.6906113 19.3842,35.0885923 3.71478,37.0496263 -27.45536,1.931122 -9.17332,-37.9587213 -3.71478,-37.0496263 z m 117.2474,-24.3322397 c -1.486,4.133 -4.961,7.61 -10.427,8.127 -4.685,0.4150001 -9.245,1.3340001 -13.737,2.4870004 -1.379,10.9820003 -4.537,21.6780006 -4.585,32.8410006 -0.028,10.958 -16.943,17.08 -21.94,5.941 -11.485,-25.6050003 -21.572,-31.3140003 -48.281,-31.0240003 -16.438,0.173 -31.13,-2.59900033 -46.092,-8.2670003 -6.847,0.882 -13.737,1.563 -20.293,1.356 -4.727,16.0380006 2.707,29.4250006 -3.801,45.5880006 -3.57,8.871 -16.07,12.54 -21.524,2.81 -6.973,-12.435 -7.388,-24.249 -11.305,-31.539 -0.724,5.194 -4.46,9.896 -11.243,9.896 -9.716,0 -13.19,-9.632 -10.463,-16.5790003 -2.354,0.376 -4.877,0.871 -7.754,1.591 -14.194,3.5500003 -26.193,-0.008 -38.045,-3.124 l 0,21.9690003 c 0,6.42 -5.356,11.776 -11.776,11.776 -6.422,0 -11.776,-5.356 -11.776,-11.776 l 0,-24.7850006 c 0,-0.202 0.054,-0.398 0.061,-0.605 -6.749,0.345 -13.8380004,2.2220003 -21.59600082,6.8470003 -0.689,0.409 -1.453,0.724 -2.24199998,0.966 l 0,-23.4840007 c 0,-2.166 1.75699998,-3.925 3.925,-3.925 l 318.4300008,0 c 1.964,0 3.511,1.461 3.812,3.34 -3.108,-0.166 -6.218,-0.323 -9.348,-0.427 z"
             id="path4191"
             style="fill:#333333;stroke:none"
             inkscape:connector-curvature="0"
             sodipodi:nodetypes="sssccscsccsssccccscsssssssscccsssccccsscscccccccccccscccsssscccssscc" />
        </g>
      </g>
      <g
         id="g4193"
         style="stroke:none" />
      <g
         id="g4195"
         style="stroke:none" />
      <g
         id="g4197"
         style="stroke:none" />
      <g
         id="g4199"
         style="stroke:none" />
      <g
         id="g4201"
         style="stroke:none" />
      <g
         id="g4203"
         style="stroke:none" />
      <g
         id="g4205"
         style="stroke:none" />
      <g
         id="g4207"
         style="stroke:none" />
      <g
         id="g4209"
         style="stroke:none" />
      <g
         id="g4211"
         style="stroke:none" />
      <g
         id="g4213"
         style="stroke:none" />
      <g
         id="g4215"
         style="stroke:none" />
      <g
         id="g4217"
         style="stroke:none" />
      <g
         id="g4219"
         style="stroke:none" />
      <g
         id="g4221"
         style="stroke:none" />
      <rect
         width="292.85712"
         height="56.428574"
         x="140.71428"
         y="50.219326"
         transform="matrix(-3.1941979,3.1941979,3.3684662,3.3684662,1701.3969,-2495.5897)"
         id="rect4358"
         style="fill:none;stroke:none" />
      <rect
         width="75"
         height="41.42857"
         x="230"
         y="63.076466"
         transform="matrix(-3.1941979,3.1941979,3.3684662,3.3684662,1701.3969,-2495.5897)"
         id="rect5820"
         style="fill:none;stroke:none" />
    </g>
    <text
       x="125.40167"
       y="218.03735"
       id="text4249"
       xml:space="preserve"
       style="font-size:20px;font-style:normal;font-variant:normal;font-weight:bold;font-stretch:normal;text-align:start;line-height:130.99999428%;letter-spacing:-1.42000008px;word-spacing:0px;writing-mode:lr-tb;text-anchor:start;fill:#333333;fill-opacity:1;stroke:none;font-family:Dingbats;-inkscape-font-specification:Dingbats Bold"
       sodipodi:linespacing="130.99999%"><tspan
         sodipodi:role="line"
         id="tspan3040"
         x="125.40167"
         y="218.03735"
         style="letter-spacing:-1.32000005px;fill:#333333">www.markkuhyttinen.fi    040 830 1074</tspan></text>
    <g
       transform="matrix(0.18145473,0.16727334,-0.18145473,0.16727334,95.263253,85.543298)"
       id="g4335"
       style="fill:#333333;stroke:none">
      <title
         id="title4337">Layer 1</title>
      <g
         id="layer1-8"
         style="fill:#333333;stroke:none">
        <path
           d="m 107.90535,1.58531 c -6.95472,1.58118 -13.06543,7.4557 -15.8125,13.90625 -1.971062,6.32164 2.346352,12.267759 7.46875,15.40625 5.03668,5.448912 2.0716,13.81946 -3.53125,17.562502 -6.608223,7.492847 -17.16217,13.621319 -27,8.75 -4.924362,-1.779373 -8.105568,-6.344471 -12.4375,-8.84375 -7.578369,3.0938 -10.784851,11.769367 -17.323601,16.41893 C 25.459221,77.52549 16.89193,94.847656 9.92923,111.99039 -2.09467,143.14987 5.6573651,190.9619 26.610315,218.47336 27.797297,190.32945 25.9708,203.82414 38.326884,218.1968 c -1.565252,-53.35791 2.085521,-56.08276 8.825161,-66.64605 8.12685,-13.14291 14.186067,-28.54646 28.707262,-25.2941 12.524971,2.21343 25.111463,7.38179 33.171043,17.82866 42.79814,43.32686 86.36322,86.19008 129.1875,129.46874 -2.27977,4.67749 -2.22968,10.15039 1.375,14.21875 7.29336,7.6694 15.34366,14.57379 22.56252,22.375 47.38992,47.00601 93.89273,95.02588 142,141.21881 7.67804,4.18838 15.43618,-2.30051 19.53125,-8.375 6.06393,-6.52411 16.28387,-12.07141 16.78125,-21.9375 -1.8147,-10.12021 -12.59553,-14.44922 -18.28556,-22.12934 -49.91964,-49.47528 -98.88427,-100.01602 -149.52694,-148.68321 -3.67859,-2.08795 -8.17682,-1.00776 -11.75,0.75 -45.51207,-44.87658 -90.7011,-90.12098 -135.69425,-135.626 -7.12571,-6.00422 -13.46993,-14.51594 -11.39952,-24.373997 1.5274,-8.596024 8.3659,-15.282295 15,-20.375 5.33237,-3.9767 11.48511,0.196381 14.73836,4.738358 4.16385,5.37661 12.29727,6.358124 17.23039,1.386642 5.80318,-4.558121 12.56503,-12.603539 7.375,-20.09375 C 162.26529,48.989579 154.13419,43.416742 147.85957,36.01352 136.1252,24.600301 125.31148,11.980341 112.34285,2.085311 110.9294,1.583721 109.39632,1.404241 107.90535,1.58531 z"
           id="rect1644"
           style="fill:#333333;stroke:none"
           inkscape:connector-curvature="0"
           sodipodi:nodetypes="ccccccccccccccccccccccccccccccc" />
      </g>
    </g>
  </g>
</svg>
